<svg width="189" height="376" viewBox="0 0 189 376" fill="none" xmlns="http://www.w3.org/2000/svg">
<path fill-rule="evenodd" clip-rule="evenodd" d="M125.974 7.70426C125.974 3.52105 122.583 0.129883 118.399 0.129883H70.9334C66.7502 0.129883 63.359 3.52105 63.359 7.70426V23.8629C63.359 28.0462 59.9678 31.4373 55.7846 31.4373H39.6259C35.4427 31.4373 32.0516 34.8285 32.0516 39.0117V55.1704C32.0516 59.3536 28.6604 62.7448 24.4772 62.7448H23.9722C19.789 62.7448 16.3979 66.1359 16.3979 70.3191V86.4778C16.3979 90.661 13.0067 94.0522 8.82346 94.0522H8.3185C4.1353 94.0522 0.744141 97.4433 0.744141 101.627V172.321V203.628V274.322C0.744141 278.506 4.1353 281.897 8.3185 281.897H8.82346C13.0067 281.897 16.3979 285.288 16.3979 289.471V305.63C16.3979 309.813 19.789 313.204 23.9722 313.204H24.4772C28.6604 313.204 32.0516 316.595 32.0516 320.779V336.937C32.0516 341.121 35.4427 344.512 39.6259 344.512H55.7846C59.9678 344.512 63.359 347.903 63.359 352.086V368.245C63.359 372.428 66.7502 375.819 70.9334 375.819H118.399C122.583 375.819 125.974 372.428 125.974 368.245V352.086C125.974 347.903 129.365 344.512 133.548 344.512H149.707C153.89 344.512 157.281 341.121 157.281 336.937V320.779C157.281 316.595 160.672 313.204 164.856 313.204H165.361C169.544 313.204 172.935 309.813 172.935 305.63V289.471C172.935 285.288 176.326 281.897 180.509 281.897H181.014C185.198 281.897 188.589 278.506 188.589 274.322V226.856C188.589 222.673 185.198 219.282 181.014 219.282H164.856C160.672 219.282 157.281 222.673 157.281 226.856V227.361C157.281 231.544 153.89 234.936 149.707 234.936H149.202C145.019 234.936 141.628 238.327 141.628 242.51V274.322C141.628 278.506 138.236 281.897 134.053 281.897H55.2797C51.0964 281.897 47.7053 278.506 47.7053 274.322V242.51C47.7053 238.327 44.3141 234.936 40.1309 234.936H39.6259C35.4427 234.936 32.0516 231.544 32.0516 227.361V203.628V172.321V148.588C32.0516 144.405 35.4427 141.013 39.6259 141.013H40.1309C44.3141 141.013 47.7053 137.622 47.7053 133.439V101.627C47.7053 97.4433 51.0964 94.0522 55.2797 94.0522H134.053C138.236 94.0522 141.628 97.4433 141.628 101.627V133.439C141.628 137.622 145.019 141.013 149.202 141.013H149.707C153.89 141.013 157.281 144.405 157.281 148.588V149.093C157.281 153.276 160.672 156.667 164.856 156.667H181.014C185.198 156.667 188.589 153.276 188.589 149.093V101.627C188.589 97.4433 185.198 94.0522 181.014 94.0522H180.509C176.326 94.0522 172.935 90.661 172.935 86.4778V70.3191C172.935 66.1359 169.544 62.7448 165.361 62.7448H164.856C160.672 62.7448 157.281 59.3536 157.281 55.1704V39.0117C157.281 34.8285 153.89 31.4373 149.707 31.4373H133.548C129.365 31.4373 125.974 28.0462 125.974 23.8629V7.70426Z" fill="white"/>
</svg>
