<svg width="338" height="506" viewBox="0 0 338 506" fill="none" xmlns="http://www.w3.org/2000/svg">
<path fill-rule="evenodd" clip-rule="evenodd" d="M266.816 417.762C294.199 376.688 311.957 318.488 311.957 252.938C311.957 187.388 294.199 129.188 266.816 88.1144C239.316 46.8637 204.102 25.2938 168.626 25.2938C133.149 25.2938 97.9355 46.8637 70.435 88.1144C43.0524 129.188 25.2938 187.388 25.2938 252.938C25.2938 318.488 43.0524 376.688 70.435 417.762C97.9355 459.013 133.149 480.583 168.626 480.583C204.102 480.583 239.316 459.013 266.816 417.762ZM168.626 505.877C261.755 505.877 337.251 392.632 337.251 252.938C337.251 113.244 261.755 0 168.626 0C75.4962 0 0 113.244 0 252.938C0 392.632 75.4962 505.877 168.626 505.877Z" fill="white"/>
</svg>
